<?xml version="1.0" encoding="UTF-8"?>
<svg width="68px" height="53px" viewBox="0 0 68 53" version="1.1" xmlns="http://www.w3.org/2000/svg" xmlns:xlink="http://www.w3.org/1999/xlink">
    <!-- Generator: Sketch 54.1 (76490) - https://sketchapp.com -->
    <title>Group 2</title>
    <desc>Created with Sketch.</desc>
    <g id="Symbols" stroke="none" stroke-width="1" fill="none" fill-rule="evenodd">
        <g id="simplifiedLogo" fill="#FFFFFF" fill-rule="nonzero">
            <g id="Group-2">
                <path d="M36.5918307,31.5098489 C35.7806643,34.5806654 34.642353,37.5434633 33.0142808,40.1127645 C31.4015137,42.6820657 29.274115,44.8366525 26.7373069,46.1193742 C24.2043251,47.3982381 21.2944569,47.7782324 18.4725927,47.2304234 C15.6507285,46.6961168 12.9532176,45.2880163 10.7435545,43.3224621 C8.52815195,41.3549793 6.76424767,38.8512607 5.6909827,36.0639932 C5.14574114,34.6751817 4.76885487,33.2169297 4.57562891,31.7316729 C4.54119261,31.3574654 4.47231998,30.9871157 4.46084122,30.6109792 C4.43979681,30.2753498 4.40536049,29.7043939 4.40918675,29.8452041 C4.3785767,29.8683509 4.54693199,29.4748542 4.99077776,29.1064335 C5.85742486,28.3368004 7.24826912,27.6481814 8.64867903,27.1119458 C10.0720465,26.5718525 11.5872441,26.1494223 13.1311386,25.8118639 C16.224667,25.1406051 19.4329832,24.79726 22.6451255,24.6988858 C25.8610942,24.6043695 29.094281,24.7606108 32.2930315,25.1656808 C34.089459,25.3875049 35.8782339,25.6942008 37.6517038,26.0722661 C37.3819527,27.9124413 37.0471553,29.7333276 36.5918307,31.5098489 M52.2163494,27.8410719 C49.0616009,26.0876973 45.7308446,24.6834546 42.3063449,23.5878367 C42.3426943,23.1654065 42.3905225,22.7429764 42.4192195,22.3205462 C42.905154,15.432427 42.4919183,8.58867258 41.6769257,1.84329233 C41.5640511,0.911631285 40.8370624,0.138140441 39.8709325,0.016619436 C38.7326212,-0.128048428 37.6937926,0.687878323 37.550308,1.83557671 C37.1638561,4.971976 36.477043,8.08522842 35.1588976,10.7104679 C34.5065209,12.0163365 33.6743101,13.1698216 32.6928753,13.9896061 C31.7095274,14.8055329 30.5960867,15.2530388 29.4290784,15.2646123 C28.2639833,15.2723279 27.0434075,14.8518267 25.9644031,14.0937671 C24.8796594,13.345352 23.9479659,12.2844543 23.2458478,11.0788887 C22.5399035,9.8694654 22.0750133,8.50572968 21.8626561,7.09955804 C21.7555209,6.39550776 21.7115189,5.67988407 21.7325633,4.96426037 C21.7402159,4.60741297 21.7708259,4.24092105 21.8071754,3.89564708 L21.8741348,3.38834511 L21.9831832,2.77495337 C22.1668434,1.73913147 21.4895961,0.741887659 20.4622461,0.54321046 C19.4253306,0.342604355 18.4228514,1.02736558 18.223886,2.072832 L18.1090983,2.68429484 L18.0000501,3.41342087 C17.9426562,3.89371818 17.9005674,4.35279754 17.8833492,4.82923703 C17.8450867,5.7724715 17.8910018,6.7234216 18.0230076,7.66472715 C18.2851061,9.54540939 18.8858284,11.3894424 19.8347401,13.059874 C20.7798254,14.7264478 22.053969,16.2406382 23.6782148,17.3960522 C25.2890689,18.5476083 27.3055061,19.3268859 29.4501228,19.3268859 C30.5138222,19.3153124 31.5928265,19.1262798 32.5800007,18.7366409 C33.5710011,18.3527889 34.4759109,17.8030511 35.2622066,17.1607257 C36.5612207,16.0863258 37.5407424,14.7939594 38.3212987,13.4495128 C38.386345,16.3081498 38.3499956,19.1590712 38.1299859,21.9887746 C38.1204202,22.1276557 38.0936364,22.264608 38.0821576,22.4034891 C36.3373846,21.9829878 34.5773067,21.6357849 32.8057498,21.3676672 C29.4214259,20.8680808 25.9988394,20.6308255 22.5705135,20.6597592 C19.1402746,20.6944794 15.7042961,20.9838152 12.2836227,21.6512163 C10.5732861,21.9887746 8.86868878,22.4208492 7.16791774,23.0265254 C5.46905983,23.6553483 3.76637565,24.3613275 2.09812779,25.7771437 C1.68297895,26.1397778 1.26974325,26.562208 0.892856969,27.110017 C0.519796954,27.6501103 0.177346992,28.3503028 0.0472542686,29.1855186 C-0.0598809153,30.1596155 0.0491673968,30.4277333 0.0491673968,30.9253908 C0.0625592948,31.3883279 0.135258169,31.8474073 0.17926012,32.3064866 C0.401183001,34.1447329 0.848855018,35.9579035 1.50888427,37.69006 C2.82129028,41.158231 4.95442832,44.3158482 7.73802997,46.7674862 C10.5082397,49.2229821 13.9155211,51.0226503 17.6346425,51.7286295 C19.4884639,52.0931925 21.4188104,52.1356284 23.3147204,51.8925864 C25.2125437,51.6341132 27.0644518,51.0342237 28.7671361,50.1700744 C32.18207,48.4147709 34.8547103,45.5889254 36.7640123,42.5007488 C38.6943587,39.3990697 39.9417183,36.0215573 40.817931,32.622827 C41.2732556,30.8038698 41.6233581,28.975268 41.8931092,27.1408794 C44.9407225,28.0397491 47.9079845,29.1990208 50.7355881,30.6534151 C53.5957149,32.1309562 56.3295752,33.8688995 58.8242945,35.9212543 C61.3171006,37.9755379 63.5803314,40.3172285 65.5661585,42.8942453 C65.9258267,43.3610403 66.5915954,43.4729168 67.0832693,43.1353584 C67.5940746,42.7842977 67.7241673,42.0802475 67.3759779,41.5652299 C63.5248507,35.8768894 58.219746,31.181935 52.2163494,27.8410719" id="Fill-21"></path>
                <path d="M48.7149274,4.61591362 C48.7149274,3.00961579 50.1390781,1.87944367 52.7860599,1.87944367 C54.9906352,1.87944367 56.6185912,2.87178991 57.533229,4.27510785 C57.6028209,4.37785077 58.7560599,3.96687908 58.7560599,3.1123587 C58.7560599,1.87944367 56.7204937,0 52.7860599,0 C49.0529457,0 46.6097691,2.01726952 46.6097691,4.92414239 C46.6097691,8.20940985 49.7662638,8.92610438 52.276547,9.47490203 C55.3286536,10.1239364 57.0262014,10.5349082 57.0262014,12.4845178 C57.0262014,14.1258985 55.5324588,15.2209877 52.8531665,15.2209877 C50.1738741,15.2209877 48.4092196,14.0908155 47.3230872,12.5872607 C47.2559807,12.5196007 46.1350523,12.8604065 46.1350523,13.7850928 C46.1350523,15.0155019 48.4763262,17.1004314 52.7860599,17.1004314 C56.7204937,17.1004314 59.1636703,15.1533277 59.1636703,12.141206 C59.1636703,8.79078447 55.8381665,8.07158409 53.2259808,7.49020947 C50.2409808,6.84117492 48.7149274,6.36003734 48.7149274,4.61591362 Z" id="Fill-5"></path>
            </g>
        </g>
    </g>
</svg>