<?xml version="1.0" encoding="UTF-8"?>
<svg width="164px" height="54px" viewBox="0 0 164 54" version="1.1" xmlns="http://www.w3.org/2000/svg" xmlns:xlink="http://www.w3.org/1999/xlink">
    <!-- Generator: Sketch 54.1 (76490) - https://sketchapp.com -->
    <title>Logo</title>
    <desc>Created with Sketch.</desc>
    <g id="Logo" stroke="none" stroke-width="1" fill="none" fill-rule="evenodd">
        <g id="logo" fill-rule="nonzero">
            <path d="M50.8528629,9.91749674 C52.4981532,9.91749674 53.6728139,11.1558537 53.6728139,12.9188727 C53.6728139,14.6298113 52.4713694,15.8951729 50.8528629,15.8951729 C49.1807888,15.8951729 48.0329118,14.656816 48.0329118,12.891868 C48.0329118,11.1558537 49.2075725,9.91749674 50.8528629,9.91749674 M50.8279922,19.764556 C55.1095732,19.764556 57.9295244,17.0795205 57.9295244,12.9188727 C57.9295244,8.81223427 55.1363571,6.07318938 50.9045174,6.07318938 C46.6229362,6.07318938 43.7762013,8.81223427 43.7762013,12.891868 C43.7762013,17.0795205 46.5177142,19.764556 50.8279922,19.764556" id="Fill-1" fill="#5677B2"></path>
            <path d="M70.9070388,6.20493358 L70.3847547,6.20493358 C69.0780882,6.20493358 68.165526,6.8106097 68.165526,8.65271384 L68.165526,14.6033853 C67.7733346,15.2090614 67.0673904,15.6314916 66.2332664,15.6314916 C65.1619146,15.6314916 64.5344084,14.892721 64.5344084,13.7083735 L64.5344084,8.65271384 C64.5344084,6.75852928 63.5950625,6.20493358 62.2367414,6.20493358 L61.7393281,6.20493358 C60.4345746,6.20493358 59.5200992,6.8106097 59.5200992,8.65271384 L59.5200992,14.6033853 C59.5200992,17.2903498 60.7483275,19.7651347 64.1173465,19.7651347 C66.2064825,19.7651347 67.4595816,18.7119527 68.3740569,17.3154255 C68.8427733,19.0533688 70.1226561,19.5278793 71.2456625,19.5278793 C72.2653598,19.5278793 73.177922,19.1054492 73.177922,18.947279 L73.177922,8.65271384 C73.177922,6.75852928 72.2385761,6.20493358 70.9070388,6.20493358" id="Fill-3" fill="#5677B2"></path>
            <path d="M80.5932073,12.3133895 C78.2955402,11.8138031 77.1208795,11.4434534 77.1208795,10.1009356 C77.1208795,8.86450759 78.2171019,7.99457151 80.2545836,7.99457151 C81.9515283,7.99457151 83.2046274,8.75841782 83.9086586,9.83860454 C83.9622261,9.91768964 84.8499177,9.60134924 84.8499177,8.94359269 C84.8499177,7.99457151 83.2830656,6.54789286 80.2545836,6.54789286 C77.3810649,6.54789286 75.5004597,8.10066126 75.5004597,10.3381909 C75.5004597,12.8669851 77.9301327,13.4186519 79.8623923,13.8410821 C82.2117138,14.3406684 83.5183804,14.6570088 83.5183804,16.1576968 C83.5183804,17.4211295 82.3685904,18.2640609 80.306238,18.2640609 C78.2438857,18.2640609 76.8855646,17.3941248 76.0495275,16.2367819 C75.9978732,16.1847015 75.1350523,16.4470326 75.1350523,17.1587984 C75.1350523,18.1058908 76.9372191,19.7107396 80.2545836,19.7107396 C83.2830656,19.7107396 85.1636707,18.2119805 85.1636707,15.8934368 C85.1636707,13.3144911 82.6039051,12.7608954 80.5932073,12.3133895" id="Fill-5" fill="#636567"></path>
            <path d="M93.4922834,8.07404237 C95.8683887,8.07404237 97.0698332,9.28539463 97.72221,10.838163 C97.7738645,10.9442528 98.8452163,10.7860826 98.8452163,10.0222363 C98.8452163,8.88996913 97.1214877,6.54634974 93.4922834,6.54634974 C89.8362953,6.54634974 87.0947825,9.31239929 87.0947825,13.1026973 C87.0947825,16.9200001 89.8362953,19.7111253 93.4922834,19.7111253 C97.1214877,19.7111253 98.8452163,17.3694349 98.8452163,16.2371678 C98.8452163,15.4733214 97.7738645,15.3151511 97.72221,15.4193121 C97.0698332,16.9740093 95.8683887,18.1853616 93.4922834,18.1853616 C90.802425,18.1853616 88.818511,16.0249881 88.818511,13.1026973 C88.818511,10.1804065 90.8292089,8.07404237 93.4922834,8.07404237" id="Fill-7" fill="#636567"></path>
            <path d="M102.525884,6.75775771 L102.344137,6.75775771 C101.900291,6.75775771 101.586538,6.94293258 101.586538,7.57368447 L101.586538,18.6861053 C101.586538,19.3168572 101.900291,19.502032 102.344137,19.502032 L102.525884,19.502032 C102.96973,19.502032 103.283483,19.3168572 103.283483,18.6861053 L103.283483,7.57368447 C103.283483,6.94293258 102.96973,6.75775771 102.525884,6.75775771" id="Fill-9" fill="#636567"></path>
            <path d="M102.474038,1.46561437 C101.716439,1.46561437 101.326161,1.8340352 101.326161,2.59788152 C101.326161,3.33472317 101.716439,3.73014866 102.422384,3.73014866 C103.179982,3.73014866 103.572174,3.36172783 103.572174,2.59788152 C103.572174,1.8340352 103.204853,1.46561437 102.474038,1.46561437" id="Fill-11" fill="#636567"></path>
            <path d="M107.85299,12.129179 C108.218397,9.73347922 109.995693,8.04761638 112.345015,8.04761638 C114.667553,8.04761638 116.184663,9.65439413 116.339627,12.129179 L107.85299,12.129179 Z M112.345015,6.54692841 C108.740681,6.54692841 106.077606,9.36505839 106.077606,13.1823611 C106.077606,17.0266684 108.71581,19.711704 112.501891,19.711704 C115.87091,19.711704 117.749602,17.7905148 117.749602,16.9205787 C117.749602,16.1046519 116.810256,15.8673966 116.756689,15.9464817 C116.027787,17.1308294 114.931564,18.1840114 112.501891,18.1840114 C109.863687,18.1840114 107.906557,16.2628221 107.774551,13.6028623 L117.437762,13.6028623 C117.960046,13.6028623 118.141793,13.4987015 118.141793,13.0241908 L118.141793,12.8660207 C118.141793,9.048718 115.84604,6.54692841 112.345015,6.54692841 L112.345015,6.54692841 Z" id="Fill-13" fill="#636567"></path>
            <path d="M126.679703,6.54712131 C124.747443,6.54712131 123.310683,7.49421359 122.449775,8.8116556 L122.449775,8.4162301 C122.449775,7.04670766 121.927491,6.75737193 121.353554,6.75737193 C121.0398,6.75737193 120.779615,6.88853747 120.779615,6.9425468 L120.779615,18.6857195 C120.779615,19.3164714 121.091454,19.5016463 121.5353,19.5016463 L121.718961,19.5016463 C122.162806,19.5016463 122.47656,19.3164714 122.47656,18.6857195 L122.47656,10.8119299 C123.207375,9.23215685 124.644134,8.15389904 126.576393,8.15389904 C128.6904,8.15389904 129.918628,9.67966278 129.918628,12.1814524 L129.918628,18.6857195 C129.918628,19.3164714 130.232382,19.5016463 130.676227,19.5016463 L130.857975,19.5016463 C131.303733,19.5016463 131.615574,19.3164714 131.615574,18.6857195 L131.615574,12.0753626 C131.615574,8.75957516 129.970283,6.54712131 126.679703,6.54712131" id="Fill-15" fill="#636567"></path>
            <path d="M140.572266,8.07404237 C142.948371,8.07404237 144.149816,9.28539463 144.802192,10.838163 C144.853848,10.9442528 145.925198,10.7860826 145.925198,10.0222363 C145.925198,8.88996913 144.20147,6.54634974 140.572266,6.54634974 C136.916277,6.54634974 134.172852,9.31239929 134.172852,13.1026973 C134.172852,16.9200001 136.916277,19.7111253 140.572266,19.7111253 C144.20147,19.7111253 145.925198,17.3694349 145.925198,16.2371678 C145.925198,15.4733214 144.853848,15.3151511 144.802192,15.4193121 C144.149816,16.9740093 142.948371,18.1853616 140.572266,18.1853616 C137.882407,18.1853616 135.898493,16.0249881 135.898493,13.1026973 C135.898493,10.1804065 137.909191,8.07404237 140.572266,8.07404237" id="Fill-17" fill="#636567"></path>
            <path d="M149.474625,12.129179 C149.841946,9.73347922 151.61733,8.04761638 153.966651,8.04761638 C156.291102,8.04761638 157.806299,9.65439413 157.963176,12.129179 L149.474625,12.129179 Z M153.966651,6.54692841 C150.362318,6.54692841 147.699243,9.36505839 147.699243,13.1823611 C147.699243,17.0266684 150.337446,19.711704 154.123527,19.711704 C157.492546,19.711704 159.373152,17.7905148 159.373152,16.9205787 C159.373152,16.1046519 158.433805,15.8673966 158.380238,15.9464817 C157.649423,17.1308294 156.553201,18.1840114 154.123527,18.1840114 C151.485324,18.1840114 149.528193,16.2628221 149.396188,13.6028623 L159.059398,13.6028623 C159.581682,13.6028623 159.765343,13.4987015 159.765343,13.0241908 L159.765343,12.8660207 C159.765343,9.048718 157.465762,6.54692841 153.966651,6.54692841 L153.966651,6.54692841 Z" id="Fill-19" fill="#636567"></path>
            <g id="Group-23" transform="translate(0.000000, 0.289175)" fill="#5677B2">
                <path d="M36.5918307,31.5455028 C35.7806643,34.6163193 34.642353,37.5791172 33.0142808,40.1484184 C31.4015137,42.7177196 29.274115,44.8723064 26.7373069,46.155028 C24.2043251,47.433892 21.2944569,47.8138862 18.4725927,47.2660773 C15.6507285,46.7317707 12.9532176,45.3236701 10.7435545,43.358116 C8.52815195,41.3906332 6.76424767,38.8869146 5.6909827,36.0996471 C5.14574114,34.7108356 4.76885487,33.2525836 4.57562891,31.7673268 C4.54119261,31.3931193 4.47231998,31.0227696 4.46084122,30.6466331 C4.43979681,30.3110037 4.40536049,29.7400478 4.40918675,29.8808579 C4.3785767,29.9040048 4.54693199,29.5105081 4.99077776,29.1420874 C5.85742486,28.3724543 7.24826912,27.6838353 8.64867903,27.1475997 C10.0720465,26.6075064 11.5872441,26.1850762 13.1311386,25.8475178 C16.224667,25.176259 19.4329832,24.8329139 22.6451255,24.7345397 C25.8610942,24.6400234 29.094281,24.7962647 32.2930315,25.2013347 C34.089459,25.4231587 35.8782339,25.7298547 37.6517038,26.10792 C37.3819527,27.9480952 37.0471553,29.7689814 36.5918307,31.5455028 M52.2163494,27.8767257 C49.0616009,26.1233512 45.7308446,24.7191085 42.3063449,23.6234906 C42.3426943,23.2010604 42.3905225,22.7786302 42.4192195,22.3562001 C42.905154,15.4680809 42.4919183,8.62432647 41.6769257,1.87894622 C41.5640511,0.94728517 40.8370624,0.173794327 39.8709325,0.0522733213 C38.7326212,-0.0923945422 37.6937926,0.723532208 37.550308,1.87123059 C37.1638561,5.00762988 36.477043,8.12088231 35.1588976,10.7461218 C34.5065209,12.0519903 33.6743101,13.2054755 32.6928753,14.02526 C31.7095274,14.8411868 30.5960867,15.2886927 29.4290784,15.3002662 C28.2639833,15.3079818 27.0434075,14.8874806 25.9644031,14.129421 C24.8796594,13.3810059 23.9479659,12.3201082 23.2458478,11.1145426 C22.5399035,9.90511929 22.0750133,8.54138356 21.8626561,7.13521192 C21.7555209,6.43116165 21.7115189,5.71553795 21.7325633,4.99991426 C21.7402159,4.64306686 21.7708259,4.27657493 21.8071754,3.93130097 L21.8741348,3.42399899 L21.9831832,2.81060726 C22.1668434,1.77478535 21.4895961,0.777541544 20.4622461,0.578864345 C19.4253306,0.378258241 18.4228514,1.06301946 18.223886,2.10848588 L18.1090983,2.71994873 L18.0000501,3.44907476 C17.9426562,3.92937207 17.9005674,4.38845142 17.8833492,4.86489091 C17.8450867,5.80812538 17.8910018,6.75907548 18.0230076,7.70038104 C18.2851061,9.58106327 18.8858284,11.4250963 19.8347401,13.0955278 C20.7798254,14.7621017 22.053969,16.276292 23.6782148,17.431706 C25.2890689,18.5832622 27.3055061,19.3625398 29.4501228,19.3625398 C30.5138222,19.3509663 31.5928265,19.1619337 32.5800007,18.7722948 C33.5710011,18.3884428 34.4759109,17.838705 35.2622066,17.1963796 C36.5612207,16.1219797 37.5407424,14.8296133 38.3212987,13.4851667 C38.386345,16.3438037 38.3499956,19.1947251 38.1299859,22.0244285 C38.1204202,22.1633095 38.0936364,22.3002619 38.0821576,22.4391429 C36.3373846,22.0186417 34.5773067,21.6714388 32.8057498,21.4033211 C29.4214259,20.9037347 25.9988394,20.6664794 22.5705135,20.6954131 C19.1402746,20.7301333 15.7042961,21.019469 12.2836227,21.6868702 C10.5732861,22.0244285 8.86868878,22.4565031 7.16791774,23.0621793 C5.46905983,23.6910022 3.76637565,24.3969814 2.09812779,25.8127976 C1.68297895,26.1754316 1.26974325,26.5978619 0.892856969,27.1456708 C0.519796954,27.6857641 0.177346992,28.3859566 0.0472542686,29.2211725 C-0.0598809153,30.1952694 0.0491673968,30.4633871 0.0491673968,30.9610447 C0.0625592948,31.4239818 0.135258169,31.8830612 0.17926012,32.3421405 C0.401183001,34.1803868 0.848855018,35.9935574 1.50888427,37.7257139 C2.82129028,41.1938849 4.95442832,44.3515021 7.73802997,46.8031401 C10.5082397,49.258636 13.9155211,51.0583042 17.6346425,51.7642834 C19.4884639,52.1288464 21.4188104,52.1712823 23.3147204,51.9282403 C25.2125437,51.6697671 27.0644518,51.0698776 28.7671361,50.2057283 C32.18207,48.4504248 34.8547103,45.6245793 36.7640123,42.5364026 C38.6943587,39.4347235 39.9417183,36.0572112 40.817931,32.6584809 C41.2732556,30.8395236 41.6233581,29.0109219 41.8931092,27.1765333 C44.9407225,28.075403 47.9079845,29.2346747 50.7355881,30.689069 C53.5957149,32.1666101 56.3295752,33.9045534 58.8242945,35.9569082 C61.3171006,38.0111918 63.5803314,40.3528823 65.5661585,42.9298992 C65.9258267,43.3966942 66.5915954,43.5085707 67.0832693,43.1710122 C67.5940746,42.8199516 67.7241673,42.1159014 67.3759779,41.6008838 C63.5248507,35.9125433 58.219746,31.2175889 52.2163494,27.8767257" id="Fill-21"></path>
            </g>
            <path d="M160.907481,3.36905767 L160.444504,3.36905767 L160.444504,2.39303182 L160.915132,2.39303182 C161.202103,2.39303182 161.380023,2.56470435 161.380023,2.86947132 C161.380023,3.1819539 161.202103,3.36905767 160.907481,3.36905767 L160.907481,3.36905767 Z M161.504376,3.82813703 C161.43359,3.69504259 161.402981,3.66418012 161.402981,3.66418012 L161.402981,3.65067778 C161.644035,3.58702392 161.936744,3.32276396 161.936744,2.86947132 C161.936744,2.32359125 161.573249,1.97253057 161.024182,1.97253057 L160.149882,1.97253057 C159.979613,1.97253057 159.895436,2.05740237 159.895436,2.23100382 L159.895436,4.66335283 C159.895436,4.82730974 159.971961,4.91218156 160.134576,4.91218156 L160.205362,4.91218156 C160.367978,4.91218156 160.444504,4.82730974 160.444504,4.66335283 L160.444504,3.77412769 L160.924698,3.77412769 L161.37237,4.72700669 C161.43359,4.85817222 161.527334,4.91218156 161.672732,4.91218156 L161.766474,4.91218156 C161.944396,4.91218156 161.997963,4.79644726 161.90422,4.61705912 L161.504376,3.82813703 Z" id="Fill-24" fill="#636567"></path>
            <path d="M160.838225,5.7707371 C159.608084,5.7707371 158.655345,4.75806205 158.655345,3.45412238 C158.655345,2.15211161 159.608084,1.13750766 160.838225,1.13750766 C162.091324,1.13750766 163.049802,2.15211161 163.049802,3.45412238 C163.049802,4.75806205 162.091324,5.7707371 160.838225,5.7707371 M160.838225,0.607058822 C159.323028,0.607058822 158.090973,1.8724204 158.090973,3.45412238 C158.090973,5.03775326 159.323028,6.30118594 160.838225,6.30118594 C162.385946,6.30118594 163.616088,5.03775326 163.616088,3.45412238 C163.616088,1.8724204 162.385946,0.607058822 160.838225,0.607058822" id="Fill-26" fill="#636567"></path>
        </g>
    </g>
</svg>